REM DIRINDEX 1\2\4\8,1\2\4\9,1\2\4\10,1\2\5\11,1\2\5\12,1\2\5\13,1\2\5\14,1\2\5\15,1\3\6\16,1\3\6\17,1\3\6\18,1\3\7\19,1\3\7\20,1\3\7\21,1\3\7\22,1\3\7\23
REM DIRNAME "folder01","folder02","folder03","folder04","folder05","folder06","folder07","folder08","folder09","folder10","folder11","folder12","folder13","folder14","folder15","folder16","folder17","folder18","folder19","folder20","folder21","folder22","folder23"
TITLE ""
FILE "LR_black_phrase_S02.mp3" MP3
  TRACK 01 AUDIO
    TITLE "0:"
    INDEX 01 00:00:00
  TRACK 02 AUDIO
    TITLE "19:cjc171_15101"
    INDEX 01 00:00:14
  TRACK 03 AUDIO
    TITLE "0:"
    INDEX 01 00:01:31
  TRACK 04 AUDIO
    TITLE "20:cjc171_15102"
    INDEX 01 00:01:72
  TRACK 05 AUDIO
    TITLE "0:"
    INDEX 01 00:04:24
  TRACK 06 AUDIO
    TITLE "21:cjc171_15103"
    INDEX 01 00:05:25
  TRACK 07 AUDIO
    TITLE "0:"
    INDEX 01 00:07:06
  TRACK 08 AUDIO
    TITLE "22:cjc171_15104"
    INDEX 01 00:07:44
  TRACK 09 AUDIO
    TITLE "0:"
    INDEX 01 00:09:50
  TRACK 10 AUDIO
    TITLE "23:cjc171_15105"
    INDEX 01 00:10:05
  TRACK 11 AUDIO
    TITLE "0:"
    INDEX 01 00:12:10
  TRACK 12 AUDIO
    TITLE "19:cjc171_15106"
    INDEX 01 00:13:15
  TRACK 13 AUDIO
    TITLE "0:"
    INDEX 01 00:14:40
  TRACK 14 AUDIO
    TITLE "20:cjc171_15107"
    INDEX 01 00:15:04
  TRACK 15 AUDIO
    TITLE "0:"
    INDEX 01 00:16:29
  TRACK 16 AUDIO
    TITLE "21:cjc171_15108"
    INDEX 01 00:17:24
  TRACK 17 AUDIO
    TITLE "0:"
    INDEX 01 00:19:74
  TRACK 18 AUDIO
    TITLE "22:cjc171_15109"
    INDEX 01 00:20:40
  TRACK 19 AUDIO
    TITLE "0:"
    INDEX 01 00:23:07
  TRACK 20 AUDIO
    TITLE "23:cjc171_15110"
    INDEX 01 00:23:35
  TRACK 21 AUDIO
    TITLE "0:"
    INDEX 01 00:26:04
  TRACK 22 AUDIO
    TITLE "19:cjc171_15111"
    INDEX 01 00:27:07
  TRACK 23 AUDIO
    TITLE "0:"
    INDEX 01 00:28:30
  TRACK 24 AUDIO
    TITLE "20:cjc171_15112"
    INDEX 01 00:28:61
  TRACK 25 AUDIO
    TITLE "0:"
    INDEX 01 00:31:13
  TRACK 26 AUDIO
    TITLE "21:cjc171_15113"
    INDEX 01 00:32:12
  TRACK 27 AUDIO
    TITLE "0:"
    INDEX 01 00:33:59
  TRACK 28 AUDIO
    TITLE "22:cjc171_15114"
    INDEX 01 00:34:17
  TRACK 29 AUDIO
    TITLE "0:"
    INDEX 01 00:35:75
  TRACK 30 AUDIO
    TITLE "23:cjc171_15115"
    INDEX 01 00:36:22
  TRACK 31 AUDIO
    TITLE "0:"
    INDEX 01 00:38:05
  TRACK 32 AUDIO
    TITLE "19:cjc171_15116"
    INDEX 01 00:39:08
  TRACK 33 AUDIO
    TITLE "0:"
    INDEX 01 00:40:29
  TRACK 34 AUDIO
    TITLE "20:cjc171_15117"
    INDEX 01 00:40:71
  TRACK 35 AUDIO
    TITLE "0:"
    INDEX 01 00:43:57
  TRACK 36 AUDIO
    TITLE "21:cjc171_15118"
    INDEX 01 00:44:57
  TRACK 37 AUDIO
    TITLE "0:"
    INDEX 01 00:46:65
  TRACK 38 AUDIO
    TITLE "22:cjc171_15119"
    INDEX 01 00:47:29
  TRACK 39 AUDIO
    TITLE "0:"
    INDEX 01 00:49:28
  TRACK 40 AUDIO
    TITLE "23:cjc171_15120"
    INDEX 01 00:49:58
  TRACK 41 AUDIO
    TITLE "0:"
    INDEX 01 00:51:55
  TRACK 42 AUDIO
    TITLE "19:cjc171_15121"
    INDEX 01 00:52:60
  TRACK 43 AUDIO
    TITLE "0:"
    INDEX 01 00:54:06
  TRACK 44 AUDIO
    TITLE "20:cjc171_15122"
    INDEX 01 00:54:47
  TRACK 45 AUDIO
    TITLE "0:"
    INDEX 01 00:55:58
  TRACK 46 AUDIO
    TITLE "21:cjc171_15123"
    INDEX 01 00:56:60
  TRACK 47 AUDIO
    TITLE "0:"
    INDEX 01 00:59:31
  TRACK 48 AUDIO
    TITLE "22:cjc171_15124"
    INDEX 01 00:59:70
  TRACK 49 AUDIO
    TITLE "0:"
    INDEX 01 01:02:19
  TRACK 50 AUDIO
    TITLE "23:cjc171_15125"
    INDEX 01 01:02:47
  TRACK 51 AUDIO
    TITLE "0:"
    INDEX 01 01:04:71
  TRACK 52 AUDIO
    TITLE "19:cjc171_15126"
    INDEX 01 01:05:74
  TRACK 53 AUDIO
    TITLE "0:"
    INDEX 01 01:07:16
  TRACK 54 AUDIO
    TITLE "20:cjc171_15127"
    INDEX 01 01:07:58
  TRACK 55 AUDIO
    TITLE "0:"
    INDEX 01 01:10:46
  TRACK 56 AUDIO
    TITLE "21:cjc171_15128"
    INDEX 01 01:11:48
  TRACK 57 AUDIO
    TITLE "0:"
    INDEX 01 01:14:24
  TRACK 58 AUDIO
    TITLE "22:cjc171_15129"
    INDEX 01 01:14:62
  TRACK 59 AUDIO
    TITLE "0:"
    INDEX 01 01:17:25
  TRACK 60 AUDIO
    TITLE "23:cjc171_15130"
    INDEX 01 01:17:52
  TRACK 61 AUDIO
    TITLE "0:"
    INDEX 01 01:20:15
  TRACK 62 AUDIO
    TITLE "19:cjc171_15131"
    INDEX 01 01:21:17
  TRACK 63 AUDIO
    TITLE "0:"
    INDEX 01 01:22:53
  TRACK 64 AUDIO
    TITLE "20:cjc171_15132"
    INDEX 01 01:23:19
  TRACK 65 AUDIO
    TITLE "0:"
    INDEX 01 01:25:59
  TRACK 66 AUDIO
    TITLE "21:cjc171_15133"
    INDEX 01 01:26:59
  TRACK 67 AUDIO
    TITLE "0:"
    INDEX 01 01:28:60
  TRACK 68 AUDIO
    TITLE "22:cjc171_15134"
    INDEX 01 01:29:26
  TRACK 69 AUDIO
    TITLE "0:"
    INDEX 01 01:31:35
  TRACK 70 AUDIO
    TITLE "23:cjc171_15135"
    INDEX 01 01:31:62
  TRACK 71 AUDIO
    TITLE "0:"
    INDEX 01 01:33:73
  TRACK 72 AUDIO
    TITLE "19:cjc171_15136"
    INDEX 01 01:34:74
  TRACK 73 AUDIO
    TITLE "0:"
    INDEX 01 01:36:38
  TRACK 74 AUDIO
    TITLE "20:cjc171_15137"
    INDEX 01 01:36:75
  TRACK 75 AUDIO
    TITLE "0:"
    INDEX 01 01:39:65
  TRACK 76 AUDIO
    TITLE "21:cjc171_15138"
    INDEX 01 01:40:65
  TRACK 77 AUDIO
    TITLE "0:"
    INDEX 01 01:42:38
  TRACK 78 AUDIO
    TITLE "22:cjc171_15139"
    INDEX 01 01:43:03
  TRACK 79 AUDIO
    TITLE "0:"
    INDEX 01 01:45:13
  TRACK 80 AUDIO
    TITLE "23:cjc171_15140"
    INDEX 01 01:45:46
  TRACK 81 AUDIO
    TITLE "0:"
    INDEX 01 01:47:59
  TRACK 82 AUDIO
    TITLE "19:cjc171_15141"
    INDEX 01 01:48:72
  TRACK 83 AUDIO
    TITLE "0:"
    INDEX 01 01:50:10
  TRACK 84 AUDIO
    TITLE "20:cjc171_15142"
    INDEX 01 01:50:52
  TRACK 85 AUDIO
    TITLE "0:"
    INDEX 01 01:51:63
  TRACK 86 AUDIO
    TITLE "21:cjc171_15143"
    INDEX 01 01:52:62
  TRACK 87 AUDIO
    TITLE "0:"
    INDEX 01 01:54:71
  TRACK 88 AUDIO
    TITLE "22:cjc171_15144"
    INDEX 01 01:55:37
  TRACK 89 AUDIO
    TITLE "0:"
    INDEX 01 01:57:50
  TRACK 90 AUDIO
    TITLE "23:cjc171_15145"
    INDEX 01 01:58:04
  TRACK 91 AUDIO
    TITLE "0:"
    INDEX 01 02:00:21
  TRACK 92 AUDIO
    TITLE "19:cjc171_15146"
    INDEX 01 02:01:26
  TRACK 93 AUDIO
    TITLE "0:"
    INDEX 01 02:02:37
  TRACK 94 AUDIO
    TITLE "20:cjc171_15147"
    INDEX 01 02:03:01
  TRACK 95 AUDIO
    TITLE "0:"
    INDEX 01 02:04:44
  TRACK 96 AUDIO
    TITLE "21:cjc171_15148"
    INDEX 01 02:05:41
  TRACK 97 AUDIO
    TITLE "0:"
    INDEX 01 02:08:01
  TRACK 98 AUDIO
    TITLE "22:cjc171_15149"
    INDEX 01 02:08:38
  TRACK 99 AUDIO
    TITLE "0:"
    INDEX 01 02:10:68
  TRACK 100 AUDIO
    TITLE "23:cjc171_15150"
    INDEX 01 02:11:22
  TRACK 101 AUDIO
    TITLE "0:"
    INDEX 01 02:13:53
  TRACK 102 AUDIO
    TITLE "19:cjc171_15151"
    INDEX 01 02:14:56
  TRACK 103 AUDIO
    TITLE "0:"
    INDEX 01 02:16:02
  TRACK 104 AUDIO
    TITLE "20:cjc171_15152"
    INDEX 01 02:16:41
  TRACK 105 AUDIO
    TITLE "0:"
    INDEX 01 02:18:56
  TRACK 106 AUDIO
    TITLE "21:cjc171_15153"
    INDEX 01 02:19:57
  TRACK 107 AUDIO
    TITLE "0:"
    INDEX 01 02:22:16
  TRACK 108 AUDIO
    TITLE "22:cjc171_15154"
    INDEX 01 02:22:48
  TRACK 109 AUDIO
    TITLE "0:"
    INDEX 01 02:24:62
  TRACK 110 AUDIO
    TITLE "23:cjc171_15155"
    INDEX 01 02:25:11
  TRACK 111 AUDIO
    TITLE "0:"
    INDEX 01 02:27:25
  TRACK 112 AUDIO
    TITLE "19:cjc171_15156"
    INDEX 01 02:28:29
  TRACK 113 AUDIO
    TITLE "0:"
    INDEX 01 02:29:63
  TRACK 114 AUDIO
    TITLE "20:cjc171_15157"
    INDEX 01 02:30:28
  TRACK 115 AUDIO
    TITLE "0:"
    INDEX 01 02:33:26
  TRACK 116 AUDIO
    TITLE "21:cjc171_15158"
    INDEX 01 02:34:25
  TRACK 117 AUDIO
    TITLE "0:"
    INDEX 01 02:38:06
  TRACK 118 AUDIO
    TITLE "22:cjc171_15159"
    INDEX 01 02:38:47
  TRACK 119 AUDIO
    TITLE "0:"
    INDEX 01 02:42:46
  TRACK 120 AUDIO
    TITLE "23:cjc171_15160"
    INDEX 01 02:43:03
  TRACK 121 AUDIO
    TITLE "0:"
    INDEX 01 02:47:01
  TRACK 122 AUDIO
    TITLE "19:cjc171_15161"
    INDEX 01 02:48:08
  TRACK 123 AUDIO
    TITLE "0:"
    INDEX 01 02:49:25
  TRACK 124 AUDIO
    TITLE "20:cjc171_15162"
    INDEX 01 02:49:60
  TRACK 125 AUDIO
    TITLE "0:"
    INDEX 01 02:51:73
  TRACK 126 AUDIO
    TITLE "21:cjc171_15163"
    INDEX 01 02:52:70
  TRACK 127 AUDIO
    TITLE "0:"
    INDEX 01 02:56:15
  TRACK 128 AUDIO
    TITLE "22:cjc171_15164"
    INDEX 01 02:56:56
  TRACK 129 AUDIO
    TITLE "0:"
    INDEX 01 02:59:17
  TRACK 130 AUDIO
    TITLE "23:cjc171_15165"
    INDEX 01 02:59:47
  TRACK 131 AUDIO
    TITLE "0:"
    INDEX 01 03:02:08
  TRACK 132 AUDIO
    TITLE "19:cjc171_15166"
    INDEX 01 03:03:11
  TRACK 133 AUDIO
    TITLE "0:"
    INDEX 01 03:04:34
  TRACK 134 AUDIO
    TITLE "20:cjc171_15167"
    INDEX 01 03:04:72
  TRACK 135 AUDIO
    TITLE "0:"
    INDEX 01 03:06:16
  TRACK 136 AUDIO
    TITLE "21:cjc171_15168"
    INDEX 01 03:07:15
  TRACK 137 AUDIO
    TITLE "0:"
    INDEX 01 03:09:14
  TRACK 138 AUDIO
    TITLE "22:cjc171_15169"
    INDEX 01 03:09:53
  TRACK 139 AUDIO
    TITLE "0:"
    INDEX 01 03:11:40
  TRACK 140 AUDIO
    TITLE "23:cjc171_15170"
    INDEX 01 03:11:68
  TRACK 141 AUDIO
    TITLE "0:"
    INDEX 01 03:13:55
  TRACK 142 AUDIO
    TITLE "19:cjc171_15171"
    INDEX 01 03:14:56
  TRACK 143 AUDIO
    TITLE "0:"
    INDEX 01 03:16:04
  TRACK 144 AUDIO
    TITLE "20:cjc171_15172"
    INDEX 01 03:16:43
  TRACK 145 AUDIO
    TITLE "0:"
    INDEX 01 03:17:64
  TRACK 146 AUDIO
    TITLE "21:cjc171_15173"
    INDEX 01 03:18:62
  TRACK 147 AUDIO
    TITLE "0:"
    INDEX 01 03:21:31
  TRACK 148 AUDIO
    TITLE "22:cjc171_15174"
    INDEX 01 03:21:70
  TRACK 149 AUDIO
    TITLE "0:"
    INDEX 01 03:24:29
  TRACK 150 AUDIO
    TITLE "23:cjc171_15175"
    INDEX 01 03:24:61
  TRACK 151 AUDIO
    TITLE "0:"
    INDEX 01 03:27:20
  TRACK 152 AUDIO
    TITLE "19:cjc171_15176"
    INDEX 01 03:28:25
  TRACK 153 AUDIO
    TITLE "0:"
    INDEX 01 03:29:36
  TRACK 154 AUDIO
    TITLE "20:cjc171_15177"
    INDEX 01 03:29:75
  TRACK 155 AUDIO
    TITLE "0:"
    INDEX 01 03:32:15
  TRACK 156 AUDIO
    TITLE "21:cjc171_15178"
    INDEX 01 03:33:14
  TRACK 157 AUDIO
    TITLE "0:"
    INDEX 01 03:35:27
  TRACK 158 AUDIO
    TITLE "22:cjc171_15179"
    INDEX 01 03:35:66
  TRACK 159 AUDIO
    TITLE "0:"
    INDEX 01 03:38:21
  TRACK 160 AUDIO
    TITLE "23:cjc171_15180"
    INDEX 01 03:38:51
  TRACK 161 AUDIO
    TITLE "0:"
    INDEX 01 03:41:06
  TRACK 162 AUDIO
    TITLE "19:cjc171_15181"
    INDEX 01 03:42:13
  TRACK 163 AUDIO
    TITLE "0:"
    INDEX 01 03:43:32
  TRACK 164 AUDIO
    TITLE "20:cjc171_15182"
    INDEX 01 03:43:72
  TRACK 165 AUDIO
    TITLE "0:"
    INDEX 01 03:47:01
  TRACK 166 AUDIO
    TITLE "21:cjc171_15183"
    INDEX 01 03:47:75
  TRACK 167 AUDIO
    TITLE "0:"
    INDEX 01 03:50:34
  TRACK 168 AUDIO
    TITLE "22:cjc171_15184"
    INDEX 01 03:50:74
  TRACK 169 AUDIO
    TITLE "0:"
    INDEX 01 03:53:05
  TRACK 170 AUDIO
    TITLE "23:cjc171_15185"
    INDEX 01 03:53:35
  TRACK 171 AUDIO
    TITLE "0:"
    INDEX 01 03:55:41
  TRACK 172 AUDIO
    TITLE "19:cjc171_15186"
    INDEX 01 03:56:47
  TRACK 173 AUDIO
    TITLE "0:"
    INDEX 01 03:57:60
  TRACK 174 AUDIO
    TITLE "20:cjc171_15187"
    INDEX 01 03:58:24
  TRACK 175 AUDIO
    TITLE "0:"
    INDEX 01 04:00:64
  TRACK 176 AUDIO
    TITLE "21:cjc171_15188"
    INDEX 01 04:01:64
  TRACK 177 AUDIO
    TITLE "0:"
    INDEX 01 04:03:72
  TRACK 178 AUDIO
    TITLE "22:cjc171_15189"
    INDEX 01 04:04:40
  TRACK 179 AUDIO
    TITLE "0:"
    INDEX 01 04:06:47
  TRACK 180 AUDIO
    TITLE "23:cjc171_15190"
    INDEX 01 04:07:03
  TRACK 181 AUDIO
    TITLE "0:"
    INDEX 01 04:09:12
  TRACK 182 AUDIO
    TITLE "19:cjc171_15191"
    INDEX 01 04:10:18
  TRACK 183 AUDIO
    TITLE "0:"
    INDEX 01 04:11:40
  TRACK 184 AUDIO
    TITLE "20:cjc171_15192"
    INDEX 01 04:12:09
  TRACK 185 AUDIO
    TITLE "0:"
    INDEX 01 04:14:62
  TRACK 186 AUDIO
    TITLE "21:cjc171_15193"
    INDEX 01 04:15:62
  TRACK 187 AUDIO
    TITLE "0:"
    INDEX 01 04:18:35
  TRACK 188 AUDIO
    TITLE "22:cjc171_15194"
    INDEX 01 04:19:01
  TRACK 189 AUDIO
    TITLE "0:"
    INDEX 01 04:21:51
  TRACK 190 AUDIO
    TITLE "23:cjc171_15195"
    INDEX 01 04:22:07
  TRACK 191 AUDIO
    TITLE "0:"
    INDEX 01 04:24:57
  TRACK 192 AUDIO
    TITLE "19:cjc171_15196"
    INDEX 01 04:25:62
  TRACK 193 AUDIO
    TITLE "0:"
    INDEX 01 04:27:02
  TRACK 194 AUDIO
    TITLE "20:cjc171_15197"
    INDEX 01 04:27:36
  TRACK 195 AUDIO
    TITLE "0:"
    INDEX 01 04:29:01
  TRACK 196 AUDIO
    TITLE "21:cjc171_15198"
    INDEX 01 04:30:03
  TRACK 197 AUDIO
    TITLE "0:"
    INDEX 01 04:32:41
  TRACK 198 AUDIO
    TITLE "22:cjc171_15199"
    INDEX 01 04:33:07
  TRACK 199 AUDIO
    TITLE "0:"
    INDEX 01 04:35:51
  TRACK 200 AUDIO
    TITLE "23:cjc171_15200"
    INDEX 01 04:36:07
  TRACK 201 AUDIO
    TITLE "0:"
    INDEX 01 04:38:51
